<?xml version="1.0" encoding="UTF-8"?>
<!DOCTYPE svg PUBLIC "-//W3C//DTD SVG 1.1//EN" "http://www.w3.org/Graphics/SVG/1.1/DTD/svg11.dtd">
<svg xmlns="http://www.w3.org/2000/svg" version="1.1" width="60px" height="60px" style="shape-rendering:geometricPrecision; text-rendering:geometricPrecision; image-rendering:optimizeQuality; fill-rule:evenodd; clip-rule:evenodd" xmlns:xlink="http://www.w3.org/1999/xlink">
<g><path style="opacity:1" fill="#fbf7ff" d="M -0.5,-0.5 C 19.5,-0.5 39.5,-0.5 59.5,-0.5C 59.5,19.5 59.5,39.5 59.5,59.5C 39.5,59.5 19.5,59.5 -0.5,59.5C -0.5,39.5 -0.5,19.5 -0.5,-0.5 Z"/></g>
<g><path style="opacity:1" fill="#1f7fff" d="M 9.5,7.5 C 11.7925,7.24358 13.9592,7.57692 16,8.5C 16.6172,9.44915 16.4506,10.2825 15.5,11C 14.2068,11.49 12.8734,11.6567 11.5,11.5C 11.1493,17.2617 11.6493,22.9284 13,28.5C 19.1367,34.255 24.47,33.5883 29,26.5C 29.4992,21.8452 29.6658,17.1785 29.5,12.5C 25.8388,12.6499 24.8388,11.1499 26.5,8C 29.025,7.10407 31.1917,7.60407 33,9.5C 33.6667,15.8333 33.6667,22.1667 33,28.5C 30.9091,32.4227 27.7424,35.0894 23.5,36.5C 22.5361,41.0791 24.2027,44.5791 28.5,47C 36.5811,48.974 41.2478,45.974 42.5,38C 42.4397,34.9539 41.273,32.4539 39,30.5C 38.0032,23.1671 41.1699,20.3338 48.5,22C 52.4723,25.9169 52.4723,29.7502 48.5,33.5C 48.3506,46.8187 41.6839,52.9854 28.5,52C 21.5193,49.2089 18.1859,44.0422 18.5,36.5C 13.7421,35.5859 10.2421,32.9192 8,28.5C 7.33333,22.1667 7.33333,15.8333 8,9.5C 8.71719,8.9558 9.21719,8.28913 9.5,7.5 Z"/></g>
<g><path style="opacity:1" fill="#eeefff" d="M 43.5,25.5 C 46.5,25.1667 47.8333,26.5 47.5,29.5C 46.1667,29.5 44.8333,29.5 43.5,29.5C 43.5,28.1667 43.5,26.8333 43.5,25.5 Z"/></g>
</svg>
