<?xml version="1.0" encoding="UTF-8"?>
<!DOCTYPE svg PUBLIC "-//W3C//DTD SVG 1.1//EN" "http://www.w3.org/Graphics/SVG/1.1/DTD/svg11.dtd">
<svg xmlns="http://www.w3.org/2000/svg" version="1.1" width="60px" height="60px" style="shape-rendering:geometricPrecision; text-rendering:geometricPrecision; image-rendering:optimizeQuality; fill-rule:evenodd; clip-rule:evenodd" xmlns:xlink="http://www.w3.org/1999/xlink">
<g><path style="opacity:1" fill="#fdf8ff" d="M -0.5,-0.5 C 19.5,-0.5 39.5,-0.5 59.5,-0.5C 59.5,19.5 59.5,39.5 59.5,59.5C 39.5,59.5 19.5,59.5 -0.5,59.5C -0.5,39.5 -0.5,19.5 -0.5,-0.5 Z"/></g>
<g><path style="opacity:1" fill="#3689ff" d="M 14.5,7.5 C 24.1724,7.33353 33.8391,7.5002 43.5,8C 45.6238,9.12173 47.4571,10.6217 49,12.5C 50.6134,22.0661 50.9468,31.7328 50,41.5C 49.3322,45.4987 47.1655,48.332 43.5,50C 33.8333,50.6667 24.1667,50.6667 14.5,50C 11,49.1667 8.83333,47 8,43.5C 7.33333,33.5 7.33333,23.5 8,13.5C 9.49363,10.6865 11.6603,8.68648 14.5,7.5 Z"/></g>
<g><path style="opacity:1" fill="#f8f5ff" d="M 13.5,10.5 C 23.5056,10.3335 33.5056,10.5002 43.5,11C 44.6667,12.1667 45.8333,13.3333 47,14.5C 47.6667,23.8333 47.6667,33.1667 47,42.5C 46.2155,44.286 45.0488,45.786 43.5,47C 33.5,47.6667 23.5,47.6667 13.5,47C 12.6667,46.1667 11.8333,45.3333 11,44.5C 9.38657,34.9339 9.05324,25.2672 10,15.5C 10.9973,13.6769 12.1639,12.0103 13.5,10.5 Z"/></g>
<g><path style="opacity:1" fill="#2986ff" d="M 20.5,16.5 C 22.1765,17.1834 22.8432,18.5168 22.5,20.5C 29.1667,21.5 29.1667,22.5 22.5,23.5C 21.8333,28.8333 21.1667,28.8333 20.5,23.5C 18.3352,23.8841 16.6685,23.2174 15.5,21.5C 17.0453,20.5481 18.712,20.2148 20.5,20.5C 20.5,19.1667 20.5,17.8333 20.5,16.5 Z"/></g>
<g><path style="opacity:1" fill="#3d90ff" d="M 31.5,17.5 C 34.8333,17.5 38.1667,17.5 41.5,17.5C 41.5,18.5 41.5,19.5 41.5,20.5C 38.1667,20.5 34.8333,20.5 31.5,20.5C 31.5,19.5 31.5,18.5 31.5,17.5 Z"/></g>
<g><path style="opacity:1" fill="#0a7cff" d="M 31.5,23.5 C 34.8984,23.1796 38.2317,23.513 41.5,24.5C 39.8333,24.8333 38.1667,25.1667 36.5,25.5C 34.3603,25.4439 32.6936,24.7773 31.5,23.5 Z"/></g>
<g><path style="opacity:1" fill="#3687ff" d="M 38.5,32.5 C 40.9815,33.6962 40.9815,35.1962 38.5,37C 40.4206,38.2408 40.754,39.7408 39.5,41.5C 38.5,40.8333 37.5,40.1667 36.5,39.5C 35.5,40.1667 34.5,40.8333 33.5,41.5C 32.246,39.7408 32.5794,38.2408 34.5,37C 31.7396,34.0973 32.2396,33.2639 36,34.5C 37.301,34.3613 38.1344,33.6946 38.5,32.5 Z"/></g>
<g><path style="opacity:1" fill="#3189ff" d="M 16.5,35.5 C 19.8333,35.5 23.1667,35.5 26.5,35.5C 26.5,36.5 26.5,37.5 26.5,38.5C 23.1667,38.5 19.8333,38.5 16.5,38.5C 16.5,37.5 16.5,36.5 16.5,35.5 Z"/></g>
</svg>
