<?xml version="1.0" encoding="UTF-8"?>
<!DOCTYPE svg PUBLIC "-//W3C//DTD SVG 1.1//EN" "http://www.w3.org/Graphics/SVG/1.1/DTD/svg11.dtd">
<svg xmlns="http://www.w3.org/2000/svg" version="1.1" width="2368px" height="1156px" style="shape-rendering:geometricPrecision; text-rendering:geometricPrecision; image-rendering:optimizeQuality; fill-rule:evenodd; clip-rule:evenodd" xmlns:xlink="http://www.w3.org/1999/xlink">
<g><path style="opacity:0.998" fill="#fedd1f" d="M 2367.5,259.5 C 2367.5,260.167 2367.5,260.833 2367.5,261.5C 2309.67,312.497 2251.67,363.33 2193.5,414C 2181.22,424.503 2176.72,437.669 2180,453.5C 2196.83,528.833 2213.67,604.167 2230.5,679.5C 2230.17,680.167 2229.83,680.833 2229.5,681.5C 2162.67,642.252 2096,602.752 2029.5,563C 2016.63,555.139 2003.63,554.806 1990.5,562C 1923.3,602.033 1855.96,641.866 1788.5,681.5C 1788.17,681 1787.83,680.5 1787.5,680C 1804.79,603.198 1821.96,526.364 1839,449.5C 1840.48,433.964 1834.98,421.464 1822.5,412C 1764.7,362.029 1707.36,311.529 1650.5,260.5C 1727.79,252.671 1805.13,245.171 1882.5,238C 1897.35,236.804 1908.18,229.637 1915,216.5C 1945.73,144.055 1977.23,72.0545 2009.5,0.5C 2040.29,70.6998 2070.79,141.033 2101,211.5C 2107.21,227.192 2118.71,236.026 2135.5,238C 2212.81,245.498 2290.14,252.665 2367.5,259.5 Z"/></g>
<g><path style="opacity:0.952" fill="#0f4b7d" d="M 912.5,395.5 C 927.385,394.203 941.718,396.37 955.5,402C 956.797,410.066 957.464,418.232 957.5,426.5C 956.5,426.5 955.5,426.5 954.5,426.5C 949.087,407.281 936.421,399.447 916.5,403C 900.551,408.306 892.051,419.473 891,436.5C 889.083,451.024 892.083,464.358 900,476.5C 913.061,488.933 927.561,490.766 943.5,482C 946.372,479.463 948.872,476.63 951,473.5C 953.968,466.604 956.468,459.604 958.5,452.5C 966.026,471.067 960.693,483.901 942.5,491C 923.38,496.321 905.046,494.321 887.5,485C 870.24,471.179 864.074,453.345 869,431.5C 872.385,418.458 879.885,408.625 891.5,402C 898.402,399.085 905.402,396.919 912.5,395.5 Z"/></g>
<g><path style="opacity:0.965" fill="#104b7c" d="M 1038.5,394.5 C 1039.12,394.611 1039.62,394.944 1040,395.5C 1040.67,403.167 1040.67,410.833 1040,418.5C 1039.59,418.957 1039.09,419.291 1038.5,419.5C 1038.39,412.754 1035.39,407.921 1029.5,405C 1020.51,404.5 1011.51,404.334 1002.5,404.5C 1002.5,417.167 1002.5,429.833 1002.5,442.5C 1009.91,442.848 1017.24,442.348 1024.5,441C 1028.76,438.334 1031.42,434.501 1032.5,429.5C 1033.83,440.167 1033.83,450.833 1032.5,461.5C 1031.69,456.74 1029.35,452.907 1025.5,450C 1017.92,448.604 1010.25,448.104 1002.5,448.5C 1002.5,460.833 1002.5,473.167 1002.5,485.5C 1009.84,485.666 1017.17,485.5 1024.5,485C 1035.7,481.97 1042.7,474.803 1045.5,463.5C 1046.68,463.281 1047.68,463.614 1048.5,464.5C 1045.87,473.704 1043.87,483.037 1042.5,492.5C 1018.83,492.5 995.167,492.5 971.5,492.5C 971.5,491.5 971.5,490.5 971.5,489.5C 975.594,490.295 978.761,488.962 981,485.5C 981.667,458.5 981.667,431.5 981,404.5C 980.535,403.069 979.701,401.903 978.5,401C 976.105,400.319 973.772,399.485 971.5,398.5C 990.491,397.667 1009.49,397.167 1028.5,397C 1032.09,396.689 1035.42,395.856 1038.5,394.5 Z"/></g>
<g><path style="opacity:0.965" fill="#0f4c7e" d="M 1063.5,395.5 C 1064.55,395.351 1065.55,395.517 1066.5,396C 1088.03,417.198 1109.86,438.032 1132,458.5C 1132.67,440.833 1132.67,423.167 1132,405.5C 1129.79,401.306 1126.29,398.972 1121.5,398.5C 1135.5,397.167 1149.5,397.167 1163.5,398.5C 1159.11,399.109 1155.61,401.109 1153,404.5C 1152.57,434.55 1152.4,464.55 1152.5,494.5C 1130.15,472.984 1107.65,451.651 1085,430.5C 1084.33,447.833 1084.33,465.167 1085,482.5C 1086.17,488.178 1089.67,490.511 1095.5,489.5C 1095.5,490.5 1095.5,491.5 1095.5,492.5C 1081.83,492.5 1068.17,492.5 1054.5,492.5C 1054.5,491.5 1054.5,490.5 1054.5,489.5C 1058.59,490.295 1061.76,488.962 1064,485.5C 1064.79,455.481 1064.63,425.481 1063.5,395.5 Z"/></g>
<g><path style="opacity:0.955" fill="#0f4c7e" d="M 1167.5,394.5 C 1172.06,395.821 1176.73,396.654 1181.5,397C 1201.5,397.667 1221.5,397.667 1241.5,397C 1245.8,396.626 1249.96,395.793 1254,394.5C 1254.83,402.853 1254.67,411.187 1253.5,419.5C 1252.98,411.499 1248.98,406.332 1241.5,404C 1234.84,403.5 1228.17,403.334 1221.5,403.5C 1221.33,429.835 1221.5,456.169 1222,482.5C 1223.51,487.849 1227.01,490.183 1232.5,489.5C 1232.5,490.5 1232.5,491.5 1232.5,492.5C 1218.5,492.5 1204.5,492.5 1190.5,492.5C 1190.5,491.5 1190.5,490.5 1190.5,489.5C 1194.89,490.057 1198.06,488.39 1200,484.5C 1200.5,457.502 1200.67,430.502 1200.5,403.5C 1194.16,403.334 1187.82,403.5 1181.5,404C 1173.31,405.848 1169.65,411.015 1170.5,419.5C 1169.5,419.5 1168.5,419.5 1167.5,419.5C 1167.5,411.167 1167.5,402.833 1167.5,394.5 Z"/></g>
<g><path style="opacity:0.96" fill="#104c7d" d="M 1401.5,395.5 C 1423.13,392.434 1441.29,398.767 1456,414.5C 1465.33,430.677 1467,447.677 1461,465.5C 1454.77,479.369 1444.27,488.203 1429.5,492C 1409.83,496.707 1391.49,493.707 1374.5,483C 1360.8,469.717 1355.63,453.55 1359,434.5C 1364.44,411.892 1378.6,398.892 1401.5,395.5 Z M 1404.5,402.5 C 1419.5,400.415 1430.33,406.082 1437,419.5C 1443.82,438.629 1442.82,457.295 1434,475.5C 1421.52,489.631 1407.69,491.131 1392.5,480C 1382.53,466.081 1379.03,450.581 1382,433.5C 1383.68,418.695 1391.18,408.361 1404.5,402.5 Z"/></g>
<g><path style="opacity:0.972" fill="#104c7e" d="M 1261.5,397.5 C 1280.17,397.333 1298.84,397.5 1317.5,398C 1336.44,402.037 1343.61,413.537 1339,432.5C 1335.97,441.533 1329.8,447.033 1320.5,449C 1323.78,450.561 1326.62,452.727 1329,455.5C 1335.49,466.982 1343.33,477.482 1352.5,487C 1355.54,489.006 1358.87,489.84 1362.5,489.5C 1362.5,490.5 1362.5,491.5 1362.5,492.5C 1352.05,492.961 1341.72,492.128 1331.5,490C 1325.91,488.419 1321.41,485.252 1318,480.5C 1312.81,470.623 1307.81,460.623 1303,450.5C 1301.1,448.47 1298.94,446.803 1296.5,445.5C 1303.34,444.952 1309.17,442.285 1314,437.5C 1318.67,428.167 1318.67,418.833 1314,409.5C 1312.27,407.383 1310.1,405.883 1307.5,405C 1302.51,404.501 1297.51,404.334 1292.5,404.5C 1292.33,430.502 1292.5,456.502 1293,482.5C 1294.51,487.849 1298.01,490.183 1303.5,489.5C 1303.5,490.5 1303.5,491.5 1303.5,492.5C 1289.5,492.5 1275.5,492.5 1261.5,492.5C 1261.5,491.5 1261.5,490.5 1261.5,489.5C 1265.89,490.057 1269.06,488.39 1271,484.5C 1271.67,457.833 1271.67,431.167 1271,404.5C 1270.63,403.584 1270.13,402.75 1269.5,402C 1266.46,400.79 1263.79,399.29 1261.5,397.5 Z"/></g>
<g><path style="opacity:0.92" fill="#104a7b" d="M 1428.5,527.5 C 1434.19,528.685 1437.86,532.185 1439.5,538C 1434.14,542.349 1428.14,545.683 1421.5,548C 1417.99,549.562 1414.32,550.395 1410.5,550.5C 1411.53,546.783 1413.36,543.45 1416,540.5C 1420.37,536.298 1424.54,531.964 1428.5,527.5 Z"/></g>
<g><path style="opacity:0.959" fill="#0f4c7d" d="M 1411.5,555.5 C 1412.5,555.414 1413.33,555.748 1414,556.5C 1427.39,586.286 1441.06,615.953 1455,645.5C 1457.82,649.493 1461.65,651.16 1466.5,650.5C 1466.5,651.5 1466.5,652.5 1466.5,653.5C 1451.83,653.5 1437.17,653.5 1422.5,653.5C 1422.5,652.5 1422.5,651.5 1422.5,650.5C 1426.46,651.027 1428.79,649.36 1429.5,645.5C 1427.17,639.505 1424.84,633.505 1422.5,627.5C 1412.17,626.167 1401.83,626.167 1391.5,627.5C 1388.67,633.486 1386.34,639.652 1384.5,646C 1385.14,649.922 1387.47,651.422 1391.5,650.5C 1391.5,651.5 1391.5,652.5 1391.5,653.5C 1381.5,653.5 1371.5,653.5 1361.5,653.5C 1361.5,652.5 1361.5,651.5 1361.5,650.5C 1367.08,650.629 1371.24,648.296 1374,643.5C 1387.19,614.417 1399.69,585.084 1411.5,555.5 Z M 1406.5,590.5 C 1407.79,591.058 1408.62,592.058 1409,593.5C 1412.22,602.28 1415.72,610.946 1419.5,619.5C 1411.17,620.833 1402.83,620.833 1394.5,619.5C 1398.79,609.926 1402.79,600.26 1406.5,590.5 Z"/></g>
<g><path style="opacity:0.965" fill="#104b7c" d="M 725.5,557.5 C 726.251,556.427 727.251,556.26 728.5,557C 750.636,577.468 772.47,598.302 794,619.5C 794.667,601.5 794.667,583.5 794,565.5C 791.929,561.875 788.762,559.875 784.5,559.5C 798.167,558.167 811.833,558.167 825.5,559.5C 821.696,559.985 818.529,561.652 816,564.5C 815.541,594.913 815.374,625.246 815.5,655.5C 792.546,634.715 770.046,613.381 748,591.5C 747.333,609.5 747.333,627.5 748,645.5C 750.22,649.692 753.72,651.359 758.5,650.5C 758.5,651.5 758.5,652.5 758.5,653.5C 744.5,653.5 730.5,653.5 716.5,653.5C 716.5,652.5 716.5,651.5 716.5,650.5C 721.28,651.359 724.78,649.692 727,645.5C 727.667,618.5 727.667,591.5 727,564.5C 726.814,561.964 726.314,559.631 725.5,557.5 Z"/></g>
<g><path style="opacity:0.962" fill="#0f4c7e" d="M 1048.5,555.5 C 1049.82,563.676 1049.82,572.009 1048.5,580.5C 1047.76,576.698 1046.59,573.031 1045,569.5C 1043.42,567.959 1041.59,566.792 1039.5,566C 1030.56,564.654 1021.56,564.154 1012.5,564.5C 1012.5,577.5 1012.5,590.5 1012.5,603.5C 1019.91,603.848 1027.24,603.348 1034.5,602C 1036.29,601.215 1037.79,600.049 1039,598.5C 1039.87,595.67 1041.04,593.003 1042.5,590.5C 1043.83,601.167 1043.83,611.833 1042.5,622.5C 1041.31,617.959 1038.98,614.125 1035.5,611C 1027.92,609.604 1020.25,609.104 1012.5,609.5C 1012.5,621.833 1012.5,634.167 1012.5,646.5C 1019.84,646.666 1027.17,646.5 1034.5,646C 1045.7,642.97 1052.7,635.803 1055.5,624.5C 1056.68,624.281 1057.68,624.614 1058.5,625.5C 1056.24,634.71 1053.91,643.877 1051.5,653C 1028.17,653.5 1004.84,653.667 981.5,653.5C 981.5,652.5 981.5,651.5 981.5,650.5C 985.888,651.057 989.055,649.39 991,645.5C 991.667,618.833 991.667,592.167 991,565.5C 988.629,562.389 985.462,560.389 981.5,559.5C 1000.49,558.667 1019.49,558.167 1038.5,558C 1042.09,557.689 1045.42,556.856 1048.5,555.5 Z"/></g>
<g><path style="opacity:0.954" fill="#104b7d" d="M 1189.5,556.5 C 1200.84,556.759 1212.17,557.093 1223.5,557.5C 1223.33,564.51 1223,571.51 1222.5,578.5C 1221.5,578.5 1220.5,578.5 1219.5,578.5C 1219.44,570.939 1215.77,566.106 1208.5,564C 1203.83,563.333 1199.17,563.333 1194.5,564C 1184.14,568.165 1182.14,574.665 1188.5,583.5C 1199.66,591.248 1211,598.748 1222.5,606C 1233.17,617.49 1234.33,629.99 1226,643.5C 1217.36,651.606 1207.03,655.606 1195,655.5C 1185.03,655.41 1175.86,652.743 1167.5,647.5C 1164.97,639.626 1165.64,631.96 1169.5,624.5C 1170.32,623.614 1171.32,623.281 1172.5,623.5C 1172.89,638.727 1180.73,647.061 1196,648.5C 1210.71,648.476 1216.38,641.476 1213,627.5C 1200.78,618.278 1188.28,609.445 1175.5,601C 1164.53,586.815 1165.53,573.482 1178.5,561C 1182.16,559.178 1185.82,557.678 1189.5,556.5 Z"/></g>
<g><path style="opacity:0.948" fill="#0f4c7e" d="M 1289.5,555.5 C 1294.06,556.821 1298.73,557.654 1303.5,558C 1323.17,558.667 1342.83,558.667 1362.5,558C 1366.96,557.736 1371.29,556.902 1375.5,555.5C 1376.5,563.807 1376.83,572.14 1376.5,580.5C 1375.5,580.5 1374.5,580.5 1373.5,580.5C 1374.69,571.857 1371.02,566.69 1362.5,565C 1356.18,564.5 1349.84,564.334 1343.5,564.5C 1343.33,591.502 1343.5,618.502 1344,645.5C 1345.94,649.39 1349.11,651.057 1353.5,650.5C 1353.5,651.5 1353.5,652.5 1353.5,653.5C 1339.83,653.5 1326.17,653.5 1312.5,653.5C 1312.5,652.5 1312.5,651.5 1312.5,650.5C 1317.39,651.144 1320.55,649.144 1322,644.5C 1322.5,617.835 1322.67,591.169 1322.5,564.5C 1314.75,564.104 1307.08,564.604 1299.5,566C 1294.1,569.279 1291.1,574.113 1290.5,580.5C 1289.5,572.193 1289.17,563.86 1289.5,555.5 Z"/></g>
<g><path style="opacity:0.962" fill="#0f4c7d" d="M 1658.5,556.5 C 1674.62,554.739 1689.62,557.905 1703.5,566C 1715.83,576.157 1722.16,589.324 1722.5,605.5C 1719.75,638.083 1701.91,654.749 1669,655.5C 1631.37,654.209 1613.7,634.876 1616,597.5C 1620.54,573.792 1634.71,560.126 1658.5,556.5 Z M 1661.5,563.5 C 1682.72,562.204 1694.89,572.204 1698,593.5C 1699.97,606.46 1698.64,619.127 1694,631.5C 1684.46,648.263 1670.96,652.43 1653.5,644C 1644.54,636.255 1639.71,626.422 1639,614.5C 1636.86,599.337 1639.86,585.337 1648,572.5C 1651.88,568.429 1656.38,565.429 1661.5,563.5 Z"/></g>
<g><path style="opacity:0.946" fill="#0f4c7d" d="M 609.5,558.5 C 622.85,558.167 636.183,558.501 649.5,559.5C 645.238,559.875 642.071,561.875 640,565.5C 639.072,586.204 639.405,606.871 641,627.5C 643.779,640.779 651.946,647.779 665.5,648.5C 679.876,647.288 688.376,639.621 691,625.5C 691.667,605.167 691.667,584.833 691,564.5C 688.705,561.935 685.872,560.269 682.5,559.5C 692.167,558.167 701.833,558.167 711.5,559.5C 708.266,560.041 705.433,561.374 703,563.5C 702.667,582.833 702.333,602.167 702,621.5C 700.983,637.172 693.149,647.672 678.5,653C 662.027,656.987 646.36,654.987 631.5,647C 624.081,641.33 619.914,633.83 619,624.5C 618.667,604.5 618.333,584.5 618,564.5C 617.626,563.584 617.126,562.75 616.5,562C 613.697,561.385 611.364,560.218 609.5,558.5 Z"/></g>
<g><path style="opacity:0.955" fill="#0f4c7e" d="M 832.5,558.5 C 846.183,558.167 859.85,558.501 873.5,559.5C 869.14,560.259 865.973,562.592 864,566.5C 863.333,592.833 863.333,619.167 864,645.5C 865.945,649.39 869.112,651.057 873.5,650.5C 873.5,651.5 873.5,652.5 873.5,653.5C 859.833,653.5 846.167,653.5 832.5,653.5C 832.5,652.5 832.5,651.5 832.5,650.5C 836.888,651.057 840.055,649.39 842,645.5C 842.667,619.167 842.667,592.833 842,566.5C 841.215,564.714 840.049,563.214 838.5,562C 835.981,561.414 833.981,560.247 832.5,558.5 Z"/></g>
<g><path style="opacity:0.953" fill="#104c7d" d="M 874.5,558.5 C 889.182,558.167 903.848,558.501 918.5,559.5C 913.335,560.48 911.168,563.48 912,568.5C 919.138,586.248 926.471,603.914 934,621.5C 941.925,603.98 949.591,586.314 957,568.5C 957.667,566.5 957.667,564.5 957,562.5C 954.948,561.277 952.781,560.277 950.5,559.5C 960.5,558.167 970.5,558.167 980.5,559.5C 975.955,560.688 972.121,563.021 969,566.5C 957.607,592.286 945.941,617.952 934,643.5C 932.119,647.307 930.953,651.307 930.5,655.5C 928.089,655.863 926.589,654.863 926,652.5C 913.053,623.663 899.72,594.997 886,566.5C 882.651,562.824 878.818,560.157 874.5,558.5 Z"/></g>
<g><path style="opacity:0.962" fill="#0f4c7e" d="M 1065.5,559.5 C 1084,558.338 1102.66,558.171 1121.5,559C 1139.98,562.16 1147.48,572.993 1144,591.5C 1141.19,600.974 1135.03,607.14 1125.5,610C 1128.96,612.463 1132.13,615.296 1135,618.5C 1141.06,628.558 1147.89,638.058 1155.5,647C 1158.73,649.467 1162.4,650.633 1166.5,650.5C 1166.5,651.5 1166.5,652.5 1166.5,653.5C 1157.46,653.717 1148.46,653.217 1139.5,652C 1133.52,650.597 1128.36,647.763 1124,643.5C 1118.43,633.355 1113.09,623.021 1108,612.5C 1105.93,609.922 1103.43,607.922 1100.5,606.5C 1100.71,605.914 1101.04,605.414 1101.5,605C 1115.42,605.378 1122.42,598.545 1122.5,584.5C 1121.44,568.782 1113.1,562.448 1097.5,565.5C 1097.33,592.169 1097.5,618.835 1098,645.5C 1099.94,649.39 1103.11,651.057 1107.5,650.5C 1107.5,651.5 1107.5,652.5 1107.5,653.5C 1093.34,653.981 1079.34,653.481 1065.5,652C 1068.08,650.878 1070.74,649.878 1073.5,649C 1074.46,647.581 1075.29,646.081 1076,644.5C 1076.67,618.5 1076.67,592.5 1076,566.5C 1073.76,562.294 1070.26,559.961 1065.5,559.5 Z"/></g>
<g><path style="opacity:0.98" fill="#0f4c7e" d="M 1241.5,558.5 C 1255.52,558.167 1269.52,558.501 1283.5,559.5C 1278.18,559.898 1274.68,562.564 1273,567.5C 1272.33,592.833 1272.33,618.167 1273,643.5C 1274.51,648.849 1278.01,651.183 1283.5,650.5C 1283.5,651.5 1283.5,652.5 1283.5,653.5C 1269.5,653.5 1255.5,653.5 1241.5,653.5C 1241.5,652.5 1241.5,651.5 1241.5,650.5C 1245.89,651.057 1249.06,649.39 1251,645.5C 1251.67,618.833 1251.67,592.167 1251,565.5C 1250.63,564.584 1250.13,563.75 1249.5,563C 1246.46,561.79 1243.79,560.29 1241.5,558.5 Z"/></g>
<g><path style="opacity:0.961" fill="#0f4c7e" d="M 1467.5,558.5 C 1485.84,558.333 1504.17,558.5 1522.5,559C 1541.61,562.433 1549.11,573.6 1545,592.5C 1542.37,602.067 1536.2,607.9 1526.5,610C 1529,611.833 1531.5,613.667 1534,615.5C 1541.07,627.14 1549.24,637.973 1558.5,648C 1563.01,650.814 1567.67,651.147 1572.5,649C 1573.7,648.097 1574.53,646.931 1575,645.5C 1575.67,618.833 1575.67,592.167 1575,565.5C 1572.63,562.389 1569.46,560.389 1565.5,559.5C 1579.5,558.167 1593.5,558.167 1607.5,559.5C 1602.18,559.898 1598.68,562.564 1597,567.5C 1596.33,592.833 1596.33,618.167 1597,643.5C 1598.51,648.849 1602.01,651.183 1607.5,650.5C 1607.5,651.5 1607.5,652.5 1607.5,653.5C 1593.75,654.138 1580.25,653.471 1567,651.5C 1556.19,654.17 1545.36,653.67 1534.5,650C 1529.57,648.125 1525.74,644.958 1523,640.5C 1518.39,631.622 1514.06,622.622 1510,613.5C 1508.64,610.637 1506.47,608.637 1503.5,607.5C 1502.61,606.675 1502.28,605.675 1502.5,604.5C 1513.71,606.149 1520.55,601.483 1523,590.5C 1526,571.157 1517.84,562.823 1498.5,565.5C 1498.33,591.835 1498.5,618.169 1499,644.5C 1500.73,649.451 1504.23,651.451 1509.5,650.5C 1509.5,651.5 1509.5,652.5 1509.5,653.5C 1495.5,653.5 1481.5,653.5 1467.5,653.5C 1467.5,652.5 1467.5,651.5 1467.5,650.5C 1471.89,651.057 1475.06,649.39 1477,645.5C 1477.67,619.167 1477.67,592.833 1477,566.5C 1476.22,564.714 1475.05,563.214 1473.5,562C 1470.98,561.414 1468.98,560.247 1467.5,558.5 Z"/></g>
<g><path style="opacity:0.972" fill="#104c7e" d="M 117.5,744.5 C 148.379,742.423 177.712,748.09 205.5,761.5C 206.5,781.155 206.833,800.822 206.5,820.5C 204.208,820.756 202.041,820.423 200,819.5C 197.581,797.151 187.747,778.985 170.5,765C 152.708,755.11 134.041,753.11 114.5,759C 84.3594,769.137 63.1927,788.971 51,818.5C 35.1734,860.087 38.5067,900.087 61,938.5C 83.5036,971.835 114.67,985.668 154.5,980C 173.882,973.619 187.048,960.786 194,941.5C 196.614,933.992 198.614,926.326 200,918.5C 202.041,917.577 204.208,917.244 206.5,917.5C 206.833,937.178 206.5,956.845 205.5,976.5C 162.723,996.491 119.057,998.657 74.5,983C 25.5127,960.974 1.17938,922.974 1.5,869C 1.79014,809.698 29.7901,770.365 85.5,751C 96.1588,748.102 106.826,745.935 117.5,744.5 Z"/></g>
<g><path style="opacity:0.978" fill="#104c7e" d="M 1133.5,744.5 C 1165.37,741.373 1195.04,747.873 1222.5,764C 1257.52,790.558 1274.52,826.058 1273.5,870.5C 1273.86,926.666 1248.2,965.166 1196.5,986C 1155.57,998.492 1116.24,994.825 1078.5,975C 1041.77,949.885 1024.11,914.885 1025.5,870C 1024.15,831.731 1037.15,799.398 1064.5,773C 1084.54,756.311 1107.54,746.811 1133.5,744.5 Z M 1141.5,755.5 C 1167.66,754.275 1188.83,763.941 1205,784.5C 1226.77,814.913 1236.11,848.913 1233,886.5C 1232.13,920.743 1218.63,948.576 1192.5,970C 1173.22,981.389 1152.55,984.722 1130.5,980C 1105.35,973.517 1087.51,958.35 1077,934.5C 1065.24,904.748 1062.24,874.081 1068,842.5C 1073.19,812.925 1087.03,788.425 1109.5,769C 1119.32,762.235 1129.99,757.735 1141.5,755.5 Z"/></g>
<g><path style="opacity:0.979" fill="#0f4c7e" d="M 1451.5,744.5 C 1472.45,743.359 1493.12,745.192 1513.5,750C 1540.99,757.958 1554.99,776.291 1555.5,805C 1555.32,824.369 1547.65,840.036 1532.5,852C 1526.76,856.064 1520.76,859.73 1514.5,863C 1528.9,892.361 1546.06,919.861 1566,945.5C 1579.99,962.169 1596.82,975.003 1616.5,984C 1621.01,985.893 1625.67,987.059 1630.5,987.5C 1630.5,989.5 1630.5,991.5 1630.5,993.5C 1608.61,993.351 1587.28,989.851 1566.5,983C 1556.1,979.052 1546.93,973.219 1539,965.5C 1521.24,940.332 1505.24,913.999 1491,886.5C 1487.36,882.266 1482.86,879.432 1477.5,878C 1468.31,876.374 1459.14,874.874 1450,873.5C 1449.33,897.833 1449.33,922.167 1450,946.5C 1449.71,968.202 1460.21,980.702 1481.5,984C 1486.78,985.095 1492.11,985.595 1497.5,985.5C 1497.5,988.167 1497.5,990.833 1497.5,993.5C 1456.5,993.5 1415.5,993.5 1374.5,993.5C 1374.5,990.833 1374.5,988.167 1374.5,985.5C 1387.44,986.062 1398.94,982.396 1409,974.5C 1412.37,969.355 1414.37,963.689 1415,957.5C 1416.04,949.869 1416.71,942.202 1417,934.5C 1417.67,889.5 1417.67,844.5 1417,799.5C 1417.68,787.96 1415.68,776.96 1411,766.5C 1405.6,761.049 1399.1,757.549 1391.5,756C 1387.22,754.843 1382.88,754.01 1378.5,753.5C 1378.5,751.167 1378.5,748.833 1378.5,746.5C 1402.99,745.926 1427.33,745.26 1451.5,744.5 Z M 1449.5,752.5 C 1472.72,752.399 1492.55,760.399 1509,776.5C 1520.21,793.255 1522.54,811.255 1516,830.5C 1508.32,845.938 1496.16,856.104 1479.5,861C 1469.67,863.804 1459.67,865.638 1449.5,866.5C 1449.5,828.5 1449.5,790.5 1449.5,752.5 Z"/></g>
<g><path style="opacity:0.967" fill="#0f4c7e" d="M 1638.5,744.5 C 1700.5,744.5 1762.5,744.5 1824.5,744.5C 1822.61,763.794 1821.28,783.127 1820.5,802.5C 1818.21,802.756 1816.04,802.423 1814,801.5C 1813.75,789.831 1810.42,779.164 1804,769.5C 1797.69,763.43 1790.19,759.596 1781.5,758C 1775.87,757.034 1770.2,756.367 1764.5,756C 1747.17,755.5 1729.84,755.333 1712.5,755.5C 1712.5,789.167 1712.5,822.833 1712.5,856.5C 1727.84,856.667 1743.17,856.5 1758.5,856C 1781.11,856.371 1794.28,845.538 1798,823.5C 1800.04,822.577 1802.21,822.244 1804.5,822.5C 1803.8,850.494 1803.47,878.494 1803.5,906.5C 1801.21,906.756 1799.04,906.423 1797,905.5C 1795.05,885.889 1784.22,875.389 1764.5,874C 1747.19,872.824 1729.85,872.324 1712.5,872.5C 1712.05,899.537 1712.55,926.537 1714,953.5C 1715.33,964.815 1721.17,972.649 1731.5,977C 1751,982.144 1770.67,982.81 1790.5,979C 1810.48,973.023 1823.98,960.189 1831,940.5C 1833.48,933.241 1835.65,925.908 1837.5,918.5C 1839.41,919.348 1841.41,919.682 1843.5,919.5C 1842.4,944.098 1838.07,968.098 1830.5,991.5C 1766.5,992.5 1702.5,992.833 1638.5,992.5C 1638.5,989.833 1638.5,987.167 1638.5,984.5C 1649.76,984.935 1660.1,982.101 1669.5,976C 1675.81,967.271 1678.98,957.438 1679,946.5C 1679.67,894.5 1679.67,842.5 1679,790.5C 1678.62,763.96 1665.12,751.293 1638.5,752.5C 1638.5,749.833 1638.5,747.167 1638.5,744.5 Z"/></g>
<g><path style="opacity:0.981" fill="#0f4c7e" d="M 2118.5,744.5 C 2157.5,744.5 2196.5,744.5 2235.5,744.5C 2235.5,747.167 2235.5,749.833 2235.5,752.5C 2225.72,752.777 2216.39,754.944 2207.5,759C 2200.45,763.584 2196.29,770.084 2195,778.5C 2194.03,784.13 2193.37,789.796 2193,795.5C 2192.33,845.5 2192.33,895.5 2193,945.5C 2193.24,953.209 2193.9,960.876 2195,968.5C 2196.93,977.077 2202.43,981.243 2211.5,981C 2227.83,981.667 2244.17,981.667 2260.5,981C 2271.98,980.423 2282.31,976.757 2291.5,970C 2296,965.5 2300.5,961 2305,956.5C 2312.1,945.967 2318.93,935.3 2325.5,924.5C 2327.5,924.986 2328.83,926.153 2329.5,928C 2323.33,949.167 2317.17,970.333 2311,991.5C 2290.72,992.827 2270.22,993.494 2249.5,993.5C 2206.5,993.098 2163.5,992.765 2120.5,992.5C 2120.5,990.167 2120.5,987.833 2120.5,985.5C 2130.42,985.792 2139.75,983.626 2148.5,979C 2154.4,974.707 2157.9,968.874 2159,961.5C 2159.96,956.877 2160.62,952.21 2161,947.5C 2161.67,896.167 2161.67,844.833 2161,793.5C 2160.82,783.607 2158.49,774.274 2154,765.5C 2148.83,760.327 2142.66,756.827 2135.5,755C 2129.91,753.581 2124.24,752.748 2118.5,752.5C 2118.5,749.833 2118.5,747.167 2118.5,744.5 Z"/></g>
<g><path style="opacity:0.971" fill="#104c7e" d="M 1991.5,744.5 C 2019.12,819.511 2046.29,894.844 2073,970.5C 2075.96,976.792 2080.8,980.959 2087.5,983C 2093.34,984.951 2099.34,985.784 2105.5,985.5C 2105.5,987.833 2105.5,990.167 2105.5,992.5C 2072.83,992.5 2040.17,992.5 2007.5,992.5C 2007.5,990.167 2007.5,987.833 2007.5,985.5C 2032.46,982.933 2039.96,969.933 2030,946.5C 2023.93,928.796 2017.77,911.129 2011.5,893.5C 1985.18,892.5 1958.84,892.167 1932.5,892.5C 1927.24,910.452 1922.07,928.452 1917,946.5C 1915.02,953.729 1914.35,961.062 1915,968.5C 1916.34,974.501 1919.84,978.668 1925.5,981C 1934.21,984.23 1943.21,985.73 1952.5,985.5C 1952.5,987.833 1952.5,990.167 1952.5,992.5C 1921.5,992.5 1890.5,992.5 1859.5,992.5C 1859.5,990.167 1859.5,987.833 1859.5,985.5C 1870.85,986.441 1880.68,983.107 1889,975.5C 1915.79,905.809 1941.79,835.809 1967,765.5C 1972.22,762.137 1977.38,758.637 1982.5,755C 1985.86,751.748 1988.86,748.248 1991.5,744.5 Z M 1970.5,784.5 C 1971.5,784.47 1972.16,784.97 1972.5,786C 1983.31,816.093 1994.31,846.093 2005.5,876C 1983.17,876.667 1960.83,876.667 1938.5,876C 1949.86,845.745 1960.53,815.245 1970.5,784.5 Z"/></g>
<g><path style="opacity:0.97" fill="#104c7e" d="M 504.5,746.5 C 529.167,747.833 553.833,747.833 578.5,746.5C 578.662,748.527 578.495,750.527 578,752.5C 576.014,754.806 574.847,757.472 574.5,760.5C 575.955,768.364 578.121,776.031 581,783.5C 601.563,833.197 622.896,882.53 645,931.5C 666.472,881.418 688.139,831.418 710,781.5C 712.583,775.42 714.083,769.087 714.5,762.5C 712.899,757.29 711.899,751.957 711.5,746.5C 735.166,747.82 758.833,747.82 782.5,746.5C 782.817,749.572 782.484,752.572 781.5,755.5C 770.127,755.672 761.961,761.005 757,771.5C 755.687,775.42 754.687,779.42 754,783.5C 755.414,836.88 758.081,890.213 762,943.5C 762.557,953.621 764.89,963.288 769,972.5C 773.502,977.337 779.002,980.503 785.5,982C 791.714,983.876 798.048,985.043 804.5,985.5C 804.5,988.167 804.5,990.833 804.5,993.5C 765.167,993.5 725.833,993.5 686.5,993.5C 686.5,990.833 686.5,988.167 686.5,985.5C 697.478,985.005 707.812,982.172 717.5,977C 723.486,971.862 726.986,965.362 728,957.5C 726.838,902.425 724.171,847.425 720,792.5C 691.725,856.717 663.725,921.05 636,985.5C 634.186,986.76 632.353,986.76 630.5,985.5C 603.828,924.158 577.162,862.825 550.5,801.5C 543.453,853.604 539.953,905.937 540,958.5C 542.117,972.617 550.284,980.784 564.5,983C 569.773,984.288 575.106,985.122 580.5,985.5C 580.5,988.167 580.5,990.833 580.5,993.5C 546.5,993.5 512.5,993.5 478.5,993.5C 478.5,990.833 478.5,988.167 478.5,985.5C 490.005,985.053 500.672,981.886 510.5,976C 513.531,973.441 515.698,970.274 517,966.5C 519.139,959.612 520.805,952.612 522,945.5C 529.933,893.205 536.099,840.705 540.5,788C 540.895,771.413 533.228,760.746 517.5,756C 513.464,755.272 509.464,754.439 505.5,753.5C 504.526,751.257 504.192,748.924 504.5,746.5 Z"/></g>
<g><path style="opacity:0.962" fill="#0f4c7e" d="M 349.5,746.5 C 350.497,746.47 351.164,746.97 351.5,748C 378.076,824.061 405.242,899.895 433,975.5C 440.991,982.906 450.491,986.573 461.5,986.5C 462.474,988.743 462.808,991.076 462.5,993.5C 430.167,993.5 397.833,993.5 365.5,993.5C 365.232,990.881 365.565,988.381 366.5,986C 389.11,983.726 396.61,971.893 389,950.5C 382.779,931.727 376.279,913.06 369.5,894.5C 343.509,893.5 317.509,893.167 291.5,893.5C 284.579,914.181 278.746,935.181 274,956.5C 271.101,968.167 274.935,976.667 285.5,982C 293.337,984.468 301.337,985.968 309.5,986.5C 310.474,988.743 310.808,991.076 310.5,993.5C 279.833,993.5 249.167,993.5 218.5,993.5C 218.192,991.076 218.526,988.743 219.5,986.5C 231.105,986.691 240.938,982.691 249,974.5C 274.727,905.987 300.06,837.321 325,768.5C 325.465,767.069 326.299,765.903 327.5,765C 336.832,761.165 344.165,754.998 349.5,746.5 Z M 329.5,785.5 C 340.907,815.879 352.241,846.379 363.5,877C 341.5,877.667 319.5,877.667 297.5,877C 308.465,846.606 319.131,816.106 329.5,785.5 Z"/></g>
<g><path style="opacity:0.971" fill="#0f4c7e" d="M 820.5,746.5 C 857.488,747.747 894.488,748.914 931.5,750C 953.363,750.793 973.363,757.126 991.5,769C 1004.66,781.013 1010.66,796.013 1009.5,814C 1009.93,834.794 1002.26,851.794 986.5,865C 967.613,877.768 946.779,885.268 924,887.5C 923.239,884.947 922.406,882.447 921.5,880C 967.268,870.323 983.768,842.823 971,797.5C 962.514,778.351 948.014,766.518 927.5,762C 918.285,759.848 908.952,758.682 899.5,758.5C 899.028,824.858 899.528,891.191 901,957.5C 903.187,969.356 910.02,977.189 921.5,981C 929.689,983.538 938.022,985.371 946.5,986.5C 946.5,988.833 946.5,991.167 946.5,993.5C 904.5,993.5 862.5,993.5 820.5,993.5C 820.5,991.167 820.5,988.833 820.5,986.5C 832.909,985.316 844.576,981.816 855.5,976C 862.988,969.225 866.821,960.725 867,950.5C 867.667,896.833 867.667,843.167 867,789.5C 866.854,776.352 861.02,766.852 849.5,761C 840.14,757.41 830.473,755.243 820.5,754.5C 820.5,751.833 820.5,749.167 820.5,746.5 Z"/></g>
<g><path style="opacity:0.872" fill="#104a7b" d="M 452.5,1038.5 C 454.144,1038.29 455.644,1038.62 457,1039.5C 461.3,1044.8 465.966,1049.8 471,1054.5C 471.749,1055.64 471.583,1056.64 470.5,1057.5C 465.064,1054.37 459.564,1051.37 454,1048.5C 449.01,1051.48 444.01,1054.48 439,1057.5C 437.77,1056.72 437.437,1055.72 438,1054.5C 442.671,1049 447.504,1043.66 452.5,1038.5 Z"/></g>
<g><path style="opacity:0.935" fill="#0f4b7c" d="M -0.5,1153.5 C -0.5,1152.5 -0.5,1151.5 -0.5,1150.5C 3.42568,1150.95 6.59234,1149.62 9,1146.5C 9.66667,1121.5 9.66667,1096.5 9,1071.5C 6.47679,1068.71 3.31012,1067.38 -0.5,1067.5C -0.5,1066.83 -0.5,1066.17 -0.5,1065.5C 19.2361,1066.03 38.9028,1065.36 58.5,1063.5C 58.8288,1069.21 58.4954,1074.87 57.5,1080.5C 57.0293,1075.84 54.696,1072.67 50.5,1071C 40.5056,1070.5 30.5056,1070.33 20.5,1070.5C 20.5,1082.5 20.5,1094.5 20.5,1106.5C 29.1731,1106.67 37.8397,1106.5 46.5,1106C 49.0414,1104.15 50.0414,1101.65 49.5,1098.5C 50.5,1098.5 51.5,1098.5 52.5,1098.5C 52.5,1105.5 52.5,1112.5 52.5,1119.5C 51.5,1119.5 50.5,1119.5 49.5,1119.5C 49.9261,1115.5 48.2594,1113 44.5,1112C 36.5069,1111.5 28.5069,1111.33 20.5,1111.5C 20.5,1123.5 20.5,1135.5 20.5,1147.5C 30.8983,1147.9 41.2317,1147.4 51.5,1146C 52.8333,1145.33 54.1667,1144.67 55.5,1144C 59.6202,1140.2 63.1202,1136.03 66,1131.5C 66.5,1131.67 67,1131.83 67.5,1132C 64.1397,1138.91 61.473,1146.08 59.5,1153.5C 39.5,1153.5 19.5,1153.5 -0.5,1153.5 Z"/></g>
<g><path style="opacity:0.909" fill="#0f4b7c" d="M 215.5,1155.5 C 213.833,1155.5 212.167,1155.5 210.5,1155.5C 181.998,1153.16 166.665,1137.66 164.5,1109C 166.837,1078.83 183.171,1063.66 213.5,1063.5C 224.761,1063.48 235.427,1065.98 245.5,1071C 247.004,1072.49 247.837,1074.32 248,1076.5C 248.787,1081.51 249.62,1086.51 250.5,1091.5C 250.176,1093.57 249.342,1093.9 248,1092.5C 242.413,1076.27 230.913,1068.27 213.5,1068.5C 193.068,1069.77 180.901,1080.43 177,1100.5C 174.411,1115.93 178.245,1129.43 188.5,1141C 204.679,1151.59 221.345,1152.25 238.5,1143C 247.27,1135.96 252.27,1126.8 253.5,1115.5C 254.501,1122.5 254.335,1129.5 253,1136.5C 247.733,1143.72 240.9,1148.89 232.5,1152C 226.771,1153.57 221.104,1154.73 215.5,1155.5 Z"/></g>
<g><path style="opacity:0.904" fill="#0f4b7c" d="M 322.5,1063.5 C 323.833,1063.5 325.167,1063.5 326.5,1063.5C 326.829,1069.21 326.495,1074.87 325.5,1080.5C 324.728,1076.1 322.395,1072.93 318.5,1071C 308.172,1070.5 297.839,1070.33 287.5,1070.5C 287.5,1082.5 287.5,1094.5 287.5,1106.5C 296.506,1106.67 305.506,1106.5 314.5,1106C 317.041,1104.15 318.041,1101.65 317.5,1098.5C 318.5,1098.5 319.5,1098.5 320.5,1098.5C 320.5,1105.5 320.5,1112.5 320.5,1119.5C 319.5,1119.5 318.5,1119.5 317.5,1119.5C 317.926,1115.5 316.259,1113 312.5,1112C 304.173,1111.5 295.84,1111.33 287.5,1111.5C 287.5,1123.5 287.5,1135.5 287.5,1147.5C 298.231,1147.9 308.898,1147.4 319.5,1146C 322.902,1144.6 325.736,1142.43 328,1139.5C 329.599,1136.62 331.433,1133.96 333.5,1131.5C 333.833,1132 334.167,1132.5 334.5,1133C 331.859,1139.76 329.526,1146.59 327.5,1153.5C 307.5,1153.5 287.5,1153.5 267.5,1153.5C 267.5,1152.5 267.5,1151.5 267.5,1150.5C 271.426,1150.95 274.592,1149.62 277,1146.5C 277.667,1121.83 277.667,1097.17 277,1072.5C 276.626,1071.58 276.126,1070.75 275.5,1070C 272.782,1068.93 270.115,1067.76 267.5,1066.5C 283.823,1065.67 300.156,1065.17 316.5,1065C 318.708,1064.81 320.708,1064.31 322.5,1063.5 Z"/></g>
<g><path style="opacity:0.929" fill="#0e4a7b" d="M 474.5,1063.5 C 475.5,1063.5 476.5,1063.5 477.5,1063.5C 477.829,1069.21 477.495,1074.87 476.5,1080.5C 476.203,1075.71 473.87,1072.54 469.5,1071C 459.506,1070.5 449.506,1070.33 439.5,1070.5C 439.5,1082.5 439.5,1094.5 439.5,1106.5C 448.173,1106.67 456.84,1106.5 465.5,1106C 468.039,1104.19 469.039,1101.69 468.5,1098.5C 469.5,1098.5 470.5,1098.5 471.5,1098.5C 471.5,1105.5 471.5,1112.5 471.5,1119.5C 470.5,1119.5 469.5,1119.5 468.5,1119.5C 469.403,1115.24 467.736,1112.74 463.5,1112C 455.507,1111.5 447.507,1111.33 439.5,1111.5C 439.5,1123.5 439.5,1135.5 439.5,1147.5C 449.898,1147.9 460.232,1147.4 470.5,1146C 471.833,1145.33 473.167,1144.67 474.5,1144C 478.62,1140.2 482.12,1136.03 485,1131.5C 485.5,1131.67 486,1131.83 486.5,1132C 483.74,1138.78 481.073,1145.61 478.5,1152.5C 458.511,1153.5 438.511,1153.83 418.5,1153.5C 418.5,1152.5 418.5,1151.5 418.5,1150.5C 422.426,1150.95 425.592,1149.62 428,1146.5C 428.667,1121.5 428.667,1096.5 428,1071.5C 425.32,1068.99 422.153,1067.32 418.5,1066.5C 434.823,1065.67 451.156,1065.17 467.5,1065C 470.036,1064.81 472.369,1064.31 474.5,1063.5 Z"/></g>
<g><path style="opacity:0.924" fill="#0f4b7b" d="M 588.5,1155.5 C 587.833,1155.5 587.167,1155.5 586.5,1155.5C 562.198,1132.03 537.698,1108.7 513,1085.5C 512.333,1105.83 512.333,1126.17 513,1146.5C 515.408,1149.62 518.574,1150.95 522.5,1150.5C 522.5,1151.5 522.5,1152.5 522.5,1153.5C 513.167,1153.5 503.833,1153.5 494.5,1153.5C 494.5,1152.5 494.5,1151.5 494.5,1150.5C 498.639,1151.3 501.805,1149.96 504,1146.5C 504.799,1118.81 504.633,1091.14 503.5,1063.5C 504.552,1063.35 505.552,1063.52 506.5,1064C 531,1087.17 555.5,1110.33 580,1133.5C 580.667,1113.83 580.667,1094.17 580,1074.5C 578.293,1069.63 574.793,1066.96 569.5,1066.5C 578.833,1065.17 588.167,1065.17 597.5,1066.5C 594.885,1067.76 592.218,1068.93 589.5,1070C 588.874,1070.75 588.374,1071.58 588,1072.5C 587.238,1100.18 587.405,1127.85 588.5,1155.5 Z"/></g>
<g><path style="opacity:0.911" fill="#0f4b7c" d="M 658.5,1155.5 C 657.167,1155.5 655.833,1155.5 654.5,1155.5C 620.567,1152.38 605.401,1133.71 609,1099.5C 615.065,1074.97 630.898,1062.97 656.5,1063.5C 668.162,1063.5 679.162,1066.17 689.5,1071.5C 691.525,1077.47 692.859,1083.64 693.5,1090C 693.167,1091.17 692.833,1092.33 692.5,1093.5C 686.464,1076.8 674.464,1068.47 656.5,1068.5C 637.301,1069.2 625.468,1078.87 621,1097.5C 617.063,1115.27 621.563,1130.43 634.5,1143C 651.599,1152.08 668.265,1151.41 684.5,1141C 691.753,1134.08 695.42,1125.58 695.5,1115.5C 696.5,1115.5 697.5,1115.5 698.5,1115.5C 697.845,1122.84 697.012,1130.17 696,1137.5C 686.106,1149.03 673.606,1155.03 658.5,1155.5 Z"/></g>
<g><path style="opacity:0.928" fill="#0f4b7c" d="M 798.5,1063.5 C 799.5,1063.5 800.5,1063.5 801.5,1063.5C 813.041,1090.25 824.874,1116.92 837,1143.5C 839.494,1148 843.327,1150.33 848.5,1150.5C 848.5,1151.5 848.5,1152.5 848.5,1153.5C 838.5,1153.5 828.5,1153.5 818.5,1153.5C 818.5,1152.5 818.5,1151.5 818.5,1150.5C 822.251,1150.58 824.251,1148.75 824.5,1145C 822.398,1138.03 819.898,1131.19 817,1124.5C 804.896,1123.18 792.729,1123.18 780.5,1124.5C 777.535,1131.23 774.869,1138.06 772.5,1145C 773.216,1148.88 775.549,1150.72 779.5,1150.5C 779.5,1151.5 779.5,1152.5 779.5,1153.5C 769.833,1153.5 760.167,1153.5 750.5,1153.5C 750.5,1152.5 750.5,1151.5 750.5,1150.5C 755.476,1150.76 759.309,1148.76 762,1144.5C 774.851,1117.77 787.018,1090.77 798.5,1063.5 Z M 798.5,1081.5 C 803.929,1093.53 809.262,1105.7 814.5,1118C 804.151,1118.83 793.817,1118.67 783.5,1117.5C 788.513,1105.48 793.513,1093.48 798.5,1081.5 Z"/></g>
<g><path style="opacity:0.898" fill="#0f4c7d" d="M 946.5,1063.5 C 947.833,1063.5 949.167,1063.5 950.5,1063.5C 950.5,1069.17 950.5,1074.83 950.5,1080.5C 949.5,1080.5 948.5,1080.5 947.5,1080.5C 948.536,1075.38 946.536,1072.21 941.5,1071C 931.506,1070.5 921.506,1070.33 911.5,1070.5C 911.5,1082.5 911.5,1094.5 911.5,1106.5C 920.173,1106.67 928.84,1106.5 937.5,1106C 938.416,1105.63 939.25,1105.13 940,1104.5C 940.543,1102.37 941.376,1100.37 942.5,1098.5C 943.833,1105.5 943.833,1112.5 942.5,1119.5C 941.194,1118.09 940.36,1116.42 940,1114.5C 939.097,1113.3 937.931,1112.47 936.5,1112C 928.173,1111.5 919.84,1111.33 911.5,1111.5C 911.5,1123.5 911.5,1135.5 911.5,1147.5C 920.839,1147.67 930.173,1147.5 939.5,1147C 944.063,1146.1 947.896,1143.93 951,1140.5C 952.763,1137.3 954.763,1134.3 957,1131.5C 957.5,1131.83 958,1132.17 958.5,1132.5C 956.029,1139.25 953.362,1145.91 950.5,1152.5C 930.845,1153.5 911.178,1153.83 891.5,1153.5C 891.5,1152.5 891.5,1151.5 891.5,1150.5C 896.423,1151.13 899.589,1149.13 901,1144.5C 901.667,1120.83 901.667,1097.17 901,1073.5C 898.987,1069.65 895.821,1067.32 891.5,1066.5C 907.823,1065.67 924.156,1065.17 940.5,1065C 942.708,1064.81 944.708,1064.31 946.5,1063.5 Z"/></g>
<g><path style="opacity:0.934" fill="#0f4b7c" d="M 1025.5,1155.5 C 1024.83,1155.5 1024.17,1155.5 1023.5,1155.5C 1012.87,1133.57 1001.7,1111.91 990,1090.5C 987.578,1108.46 985.411,1126.46 983.5,1144.5C 983.493,1149.02 985.827,1151.02 990.5,1150.5C 990.5,1151.5 990.5,1152.5 990.5,1153.5C 981.494,1153.67 972.494,1153.5 963.5,1153C 963.043,1152.59 962.709,1152.09 962.5,1151.5C 966.023,1150.86 969.356,1149.69 972.5,1148C 973.717,1146.35 974.55,1144.52 975,1142.5C 978.76,1116.51 982.427,1090.51 986,1064.5C 986.414,1064.04 986.914,1063.71 987.5,1063.5C 1001.08,1086.99 1013.91,1110.99 1026,1135.5C 1038.26,1111.99 1050.26,1088.32 1062,1064.5C 1062.72,1063.55 1063.55,1063.38 1064.5,1064C 1068.75,1090.78 1072.92,1117.61 1077,1144.5C 1079.35,1149.26 1083.19,1151.26 1088.5,1150.5C 1088.5,1151.5 1088.5,1152.5 1088.5,1153.5C 1078.17,1153.5 1067.83,1153.5 1057.5,1153.5C 1057.5,1152.5 1057.5,1151.5 1057.5,1150.5C 1062.83,1151.17 1065.16,1148.84 1064.5,1143.5C 1062.49,1125.42 1059.99,1107.42 1057,1089.5C 1045.13,1110.9 1034.63,1132.9 1025.5,1155.5 Z"/></g>
<g><path style="opacity:0.936" fill="#0f4b7c" d="M 1187.5,1063.5 C 1188.83,1063.5 1190.17,1063.5 1191.5,1063.5C 1191.83,1069.21 1191.5,1074.87 1190.5,1080.5C 1189.73,1076.1 1187.39,1072.93 1183.5,1071C 1173.51,1070.5 1163.51,1070.33 1153.5,1070.5C 1153.5,1082.5 1153.5,1094.5 1153.5,1106.5C 1162.17,1106.67 1170.84,1106.5 1179.5,1106C 1182.04,1104.15 1183.04,1101.65 1182.5,1098.5C 1183.5,1098.5 1184.5,1098.5 1185.5,1098.5C 1185.5,1105.5 1185.5,1112.5 1185.5,1119.5C 1184.5,1119.5 1183.5,1119.5 1182.5,1119.5C 1182.93,1115.5 1181.26,1113 1177.5,1112C 1169.51,1111.5 1161.51,1111.33 1153.5,1111.5C 1153.5,1123.5 1153.5,1135.5 1153.5,1147.5C 1163.9,1147.9 1174.23,1147.4 1184.5,1146C 1185.83,1145.33 1187.17,1144.67 1188.5,1144C 1192.62,1140.2 1196.12,1136.03 1199,1131.5C 1199.5,1131.67 1200,1131.83 1200.5,1132C 1197.14,1138.91 1194.47,1146.08 1192.5,1153.5C 1172.5,1153.5 1152.5,1153.5 1132.5,1153.5C 1132.5,1152.5 1132.5,1151.5 1132.5,1150.5C 1136.43,1150.95 1139.59,1149.62 1142,1146.5C 1142.67,1121.5 1142.67,1096.5 1142,1071.5C 1139.32,1068.99 1136.15,1067.32 1132.5,1066.5C 1148.82,1065.67 1165.16,1065.17 1181.5,1065C 1183.71,1064.81 1185.71,1064.31 1187.5,1063.5 Z"/></g>
<g><path style="opacity:0.896" fill="#0f4b7d" d="M 1302.5,1155.5 C 1301.83,1155.5 1301.17,1155.5 1300.5,1155.5C 1276.2,1132.03 1251.7,1108.7 1227,1085.5C 1226.33,1105.83 1226.33,1126.17 1227,1146.5C 1229.41,1149.62 1232.57,1150.95 1236.5,1150.5C 1236.5,1151.5 1236.5,1152.5 1236.5,1153.5C 1227.17,1153.5 1217.83,1153.5 1208.5,1153.5C 1208.5,1152.5 1208.5,1151.5 1208.5,1150.5C 1212.43,1150.95 1215.59,1149.62 1218,1146.5C 1218.79,1118.81 1218.62,1091.15 1217.5,1063.5C 1218.55,1063.35 1219.55,1063.52 1220.5,1064C 1244.67,1086.83 1268.83,1109.67 1293,1132.5C 1293.67,1112.17 1293.67,1091.83 1293,1071.5C 1290.32,1068.99 1287.15,1067.32 1283.5,1066.5C 1292.83,1065.17 1302.17,1065.17 1311.5,1066.5C 1307.54,1067.39 1304.37,1069.39 1302,1072.5C 1301.22,1100.18 1301.39,1127.85 1302.5,1155.5 Z"/></g>
<g><path style="opacity:0.913" fill="#104b7c" d="M 1350.5,1155.5 C 1349.5,1155.5 1348.5,1155.5 1347.5,1155.5C 1341.89,1154.73 1336.22,1153.57 1330.5,1152C 1327.9,1151.12 1325.73,1149.62 1324,1147.5C 1323.31,1142.11 1323.64,1136.78 1325,1131.5C 1325.71,1130.03 1326.88,1129.36 1328.5,1129.5C 1327.28,1138.22 1330.61,1144.39 1338.5,1148C 1348.19,1151.33 1356.69,1149.49 1364,1142.5C 1367.47,1136.29 1367.14,1130.29 1363,1124.5C 1351.38,1115.88 1340.05,1106.88 1329,1097.5C 1322.11,1082.84 1325.94,1072 1340.5,1065C 1344.43,1064 1348.43,1063.5 1352.5,1063.5C 1358.17,1063.91 1363.83,1064.24 1369.5,1064.5C 1369.83,1070.21 1369.5,1075.87 1368.5,1081.5C 1367.2,1078.15 1365.54,1074.98 1363.5,1072C 1354.05,1066.79 1345.22,1067.62 1337,1074.5C 1333.67,1079.83 1333.67,1085.17 1337,1090.5C 1348.96,1099.45 1360.62,1108.79 1372,1118.5C 1379.26,1139.32 1372.1,1151.65 1350.5,1155.5 Z"/></g>
<g><path style="opacity:0.928" fill="#0f4b7d" d="M 1530.5,1155.5 C 1529.5,1155.5 1528.5,1155.5 1527.5,1155.5C 1502.9,1132.06 1478.4,1108.4 1454,1084.5C 1453.33,1104.5 1453.33,1124.5 1454,1144.5C 1455.69,1149.43 1459.19,1151.43 1464.5,1150.5C 1464.5,1151.5 1464.5,1152.5 1464.5,1153.5C 1454.83,1153.5 1445.17,1153.5 1435.5,1153.5C 1435.5,1152.5 1435.5,1151.5 1435.5,1150.5C 1440.28,1151.36 1443.78,1149.69 1446,1145.5C 1446.75,1118.15 1446.58,1090.82 1445.5,1063.5C 1446.55,1063.35 1447.55,1063.52 1448.5,1064C 1472.67,1086.83 1496.83,1109.67 1521,1132.5C 1521.67,1112.83 1521.67,1093.17 1521,1073.5C 1518.72,1069.45 1515.22,1067.11 1510.5,1066.5C 1520.17,1065.17 1529.83,1065.17 1539.5,1066.5C 1534.78,1067.11 1531.28,1069.45 1529,1073.5C 1528.33,1096.5 1528.33,1119.5 1529,1142.5C 1529.29,1146.88 1529.79,1151.22 1530.5,1155.5 Z"/></g>
<g><path style="opacity:0.927" fill="#0f4b7c" d="M 1601.5,1155.5 C 1599.83,1155.5 1598.17,1155.5 1596.5,1155.5C 1568.35,1153.01 1552.68,1137.68 1549.5,1109.5C 1550.37,1087.79 1561.04,1073.29 1581.5,1066C 1598.94,1060.94 1615.27,1063.28 1630.5,1073C 1649.61,1090.76 1653.11,1111.26 1641,1134.5C 1630.95,1147.44 1617.78,1154.44 1601.5,1155.5 Z M 1595.5,1068.5 C 1618.28,1068.78 1631.78,1080.11 1636,1102.5C 1638.37,1125.96 1628.54,1141.46 1606.5,1149C 1582.12,1151.29 1567.29,1140.46 1562,1116.5C 1559.5,1090.56 1570.67,1074.56 1595.5,1068.5 Z"/></g>
<g><path style="opacity:0.916" fill="#104b7c" d="M 1725.5,1155.5 C 1724.5,1155.5 1723.5,1155.5 1722.5,1155.5C 1714.21,1155.13 1706.37,1152.8 1699,1148.5C 1698.35,1142.14 1698.51,1135.8 1699.5,1129.5C 1700.5,1129.5 1701.5,1129.5 1702.5,1129.5C 1703.6,1145.09 1711.93,1151.59 1727.5,1149C 1739.44,1145.61 1743.28,1138.11 1739,1126.5C 1727.98,1117.31 1716.81,1108.31 1705.5,1099.5C 1699.42,1090.9 1698.92,1081.9 1704,1072.5C 1710.09,1066.08 1717.59,1063.08 1726.5,1063.5C 1732.5,1063.97 1738.5,1064.3 1744.5,1064.5C 1744.5,1070.17 1744.5,1075.83 1744.5,1081.5C 1743.5,1081.5 1742.5,1081.5 1741.5,1081.5C 1740.57,1072.42 1735.4,1068.08 1726,1068.5C 1717.99,1068.66 1712.33,1072.33 1709,1079.5C 1708.4,1083.05 1709.07,1086.39 1711,1089.5C 1721.55,1098.38 1732.38,1106.88 1743.5,1115C 1751.55,1124.24 1752.38,1134.07 1746,1144.5C 1740.68,1151.24 1733.85,1154.91 1725.5,1155.5 Z"/></g>
<g><path style="opacity:0.928" fill="#0e4b7c" d="M 2001.5,1063.5 C 2002.5,1063.5 2003.5,1063.5 2004.5,1063.5C 2004.83,1069.21 2004.5,1074.87 2003.5,1080.5C 2003.2,1075.71 2000.87,1072.54 1996.5,1071C 1986.51,1070.5 1976.51,1070.33 1966.5,1070.5C 1966.5,1082.5 1966.5,1094.5 1966.5,1106.5C 1975.17,1106.67 1983.84,1106.5 1992.5,1106C 1995.04,1104.19 1996.04,1101.69 1995.5,1098.5C 1996.5,1098.5 1997.5,1098.5 1998.5,1098.5C 1998.5,1105.5 1998.5,1112.5 1998.5,1119.5C 1997.5,1119.5 1996.5,1119.5 1995.5,1119.5C 1996.27,1115.82 1994.94,1113.32 1991.5,1112C 1983.17,1111.5 1974.84,1111.33 1966.5,1111.5C 1966.5,1123.5 1966.5,1135.5 1966.5,1147.5C 1976.91,1147.93 1987.25,1147.43 1997.5,1146C 1998.83,1145.33 2000.17,1144.67 2001.5,1144C 2005.62,1140.2 2009.12,1136.03 2012,1131.5C 2012.5,1131.67 2013,1131.83 2013.5,1132C 2010.74,1138.78 2008.07,1145.61 2005.5,1152.5C 1985.51,1153.5 1965.51,1153.83 1945.5,1153.5C 1945.5,1152.5 1945.5,1151.5 1945.5,1150.5C 1949.43,1150.95 1952.59,1149.62 1955,1146.5C 1955.67,1121.5 1955.67,1096.5 1955,1071.5C 1952.32,1068.99 1949.15,1067.32 1945.5,1066.5C 1961.82,1065.67 1978.16,1065.17 1994.5,1065C 1997.04,1064.81 1999.37,1064.31 2001.5,1063.5 Z"/></g>
<g><path style="opacity:0.926" fill="#104b7c" d="M 2210.5,1155.5 C 2208.83,1155.5 2207.17,1155.5 2205.5,1155.5C 2168.84,1149.98 2154.34,1128.98 2162,1092.5C 2171.34,1073.49 2186.67,1063.82 2208,1063.5C 2237.77,1064.44 2254.27,1079.6 2257.5,1109C 2254.6,1137.4 2238.93,1152.9 2210.5,1155.5 Z M 2204.5,1068.5 C 2226.83,1068.66 2240.33,1079.66 2245,1101.5C 2247.5,1118.35 2242.33,1132.19 2229.5,1143C 2209.01,1154.33 2191.51,1150.83 2177,1132.5C 2168.16,1116.28 2168.49,1100.28 2178,1084.5C 2184.79,1075.69 2193.62,1070.36 2204.5,1068.5 Z"/></g>
<g><path style="opacity:0.927" fill="#0f4a7b" d="M 71.5,1065.5 C 83.1857,1065.17 94.8523,1065.5 106.5,1066.5C 104.631,1067.62 102.631,1068.46 100.5,1069C 99.7069,1070.09 99.0402,1071.25 98.5,1072.5C 104.477,1081.8 110.81,1090.8 117.5,1099.5C 123.195,1091.64 128.695,1083.64 134,1075.5C 134.667,1073.83 134.667,1072.17 134,1070.5C 132.075,1068.79 129.908,1067.45 127.5,1066.5C 138.5,1065.17 149.5,1065.17 160.5,1066.5C 155.126,1067.79 150.293,1070.12 146,1073.5C 138.152,1084.68 130.319,1095.84 122.5,1107C 130.985,1119.49 139.485,1131.99 148,1144.5C 152.272,1148.76 157.439,1150.76 163.5,1150.5C 163.5,1151.5 163.5,1152.5 163.5,1153.5C 151.833,1153.5 140.167,1153.5 128.5,1153.5C 128.5,1152.5 128.5,1151.5 128.5,1150.5C 132.843,1150.65 135.01,1148.65 135,1144.5C 128.333,1135.17 121.667,1125.83 115,1116.5C 107.711,1126.24 100.544,1136.08 93.5,1146C 94.8364,1149.83 97.5031,1151.33 101.5,1150.5C 101.5,1151.5 101.5,1152.5 101.5,1153.5C 90.5,1153.5 79.5,1153.5 68.5,1153.5C 68.5,1152.5 68.5,1151.5 68.5,1150.5C 73.9004,1150.81 78.5671,1149.14 82.5,1145.5C 92.2154,1133.79 101.549,1121.79 110.5,1109.5C 102.167,1097.5 93.8333,1085.5 85.5,1073.5C 80.944,1070.25 76.2773,1067.58 71.5,1065.5 Z"/></g>
<g><path style="opacity:0.911" fill="#0f4b7c" d="M 344.5,1065.5 C 354.855,1065.17 365.188,1065.5 375.5,1066.5C 371.684,1067.49 368.518,1069.49 366,1072.5C 365.5,1097.5 365.333,1122.5 365.5,1147.5C 375.912,1147.93 386.246,1147.43 396.5,1146C 398.996,1144.92 401.33,1143.59 403.5,1142C 405.642,1138.21 408.142,1134.71 411,1131.5C 411.5,1131.83 412,1132.17 412.5,1132.5C 409.638,1139.09 406.971,1145.75 404.5,1152.5C 384.511,1153.5 364.511,1153.83 344.5,1153.5C 344.5,1152.5 344.5,1151.5 344.5,1150.5C 349.584,1151.24 353.084,1149.24 355,1144.5C 355.667,1121.17 355.667,1097.83 355,1074.5C 353.592,1070.28 350.592,1067.94 346,1067.5C 344.97,1067.16 344.47,1066.5 344.5,1065.5 Z"/></g>
<g><path style="opacity:0.911" fill="#0f4c7d" d="M 710.5,1065.5 C 721.853,1065.17 733.186,1065.5 744.5,1066.5C 741.466,1067.57 738.466,1068.73 735.5,1070C 734.299,1070.9 733.465,1072.07 733,1073.5C 732.333,1097.17 732.333,1120.83 733,1144.5C 735.353,1149.26 739.186,1151.26 744.5,1150.5C 744.5,1151.5 744.5,1152.5 744.5,1153.5C 733.167,1153.5 721.833,1153.5 710.5,1153.5C 710.5,1152.5 710.5,1151.5 710.5,1150.5C 715.384,1151.14 719.217,1149.47 722,1145.5C 722.667,1121.5 722.667,1097.5 722,1073.5C 721.535,1072.07 720.701,1070.9 719.5,1070C 716.066,1068.94 713.066,1067.44 710.5,1065.5 Z"/></g>
<g><path style="opacity:0.957" fill="#0f4b7d" d="M 1390.5,1065.5 C 1401.85,1065.17 1413.19,1065.5 1424.5,1066.5C 1420.09,1067.46 1416.26,1069.46 1413,1072.5C 1412.33,1096.83 1412.33,1121.17 1413,1145.5C 1413.37,1146.42 1413.87,1147.25 1414.5,1148C 1417.79,1149.58 1421.12,1150.91 1424.5,1152C 1413.33,1153.48 1402,1153.98 1390.5,1153.5C 1390.5,1152.5 1390.5,1151.5 1390.5,1150.5C 1396.35,1151.33 1400.18,1149 1402,1143.5C 1402.67,1120.5 1402.67,1097.5 1402,1074.5C 1400.06,1070.24 1396.73,1067.9 1392,1067.5C 1390.97,1067.16 1390.47,1066.5 1390.5,1065.5 Z"/></g>
<g><path style="opacity:0.938" fill="#0f4c7d" d="M 1810.5,1155.5 C 1808.83,1155.5 1807.17,1155.5 1805.5,1155.5C 1789.55,1155.11 1778.72,1147.44 1773,1132.5C 1771.74,1112.2 1771.07,1091.87 1771,1071.5C 1768.74,1068.95 1765.91,1067.28 1762.5,1066.5C 1772.17,1065.17 1781.83,1065.17 1791.5,1066.5C 1789.23,1067.49 1786.89,1068.32 1784.5,1069C 1783.11,1070.17 1782.27,1071.67 1782,1073.5C 1781.33,1089.17 1781.33,1104.83 1782,1120.5C 1783.46,1142.96 1795.29,1152.46 1817.5,1149C 1827.03,1146.14 1833.19,1139.97 1836,1130.5C 1837.6,1111.21 1837.94,1091.88 1837,1072.5C 1836.53,1071.07 1835.7,1069.9 1834.5,1069C 1832.37,1068.46 1830.37,1067.62 1828.5,1066.5C 1836.83,1065.17 1845.17,1065.17 1853.5,1066.5C 1851.63,1067.62 1849.63,1068.46 1847.5,1069C 1846.3,1069.9 1845.47,1071.07 1845,1072.5C 1844.95,1093.22 1844.29,1113.88 1843,1134.5C 1836.62,1148.44 1825.79,1155.44 1810.5,1155.5 Z"/></g>
<g><path style="opacity:0.92" fill="#0f4c7d" d="M 1865.5,1065.5 C 1879.84,1065.33 1894.17,1065.5 1908.5,1066C 1931.95,1071.06 1938.78,1084.56 1929,1106.5C 1920.85,1116.05 1910.68,1119.22 1898.5,1116C 1895.46,1115.65 1892.79,1114.48 1890.5,1112.5C 1897.65,1112.06 1904.65,1110.89 1911.5,1109C 1922,1100.82 1924.5,1090.65 1919,1078.5C 1914.83,1074 1909.67,1071.5 1903.5,1071C 1897.84,1070.5 1892.18,1070.33 1886.5,1070.5C 1886.33,1095.5 1886.5,1120.5 1887,1145.5C 1888.94,1149.39 1892.11,1151.06 1896.5,1150.5C 1896.5,1151.5 1896.5,1152.5 1896.5,1153.5C 1886.17,1153.5 1875.83,1153.5 1865.5,1153.5C 1865.5,1152.5 1865.5,1151.5 1865.5,1150.5C 1870.58,1151.24 1874.08,1149.24 1876,1144.5C 1876.67,1120.83 1876.67,1097.17 1876,1073.5C 1875.22,1071.71 1874.05,1070.21 1872.5,1069C 1869.6,1068.56 1867.27,1067.4 1865.5,1065.5 Z"/></g>
<g><path style="opacity:0.919" fill="#0f4b7c" d="M 2022.5,1065.5 C 2037.5,1065.33 2052.5,1065.5 2067.5,1066C 2086.55,1070.26 2093.05,1081.76 2087,1100.5C 2082.88,1107.29 2077.05,1111.79 2069.5,1114C 2078.12,1124.96 2087.12,1135.63 2096.5,1146C 2100.02,1148.78 2104.02,1150.28 2108.5,1150.5C 2108.5,1151.5 2108.5,1152.5 2108.5,1153.5C 2098.55,1154.13 2089.55,1151.63 2081.5,1146C 2073.95,1136.78 2066.78,1127.28 2060,1117.5C 2056.39,1113.95 2052.23,1111.28 2047.5,1109.5C 2052.8,1108.67 2058.14,1108.17 2063.5,1108C 2073.08,1105.72 2078.08,1099.55 2078.5,1089.5C 2078.17,1080.67 2073.83,1074.84 2065.5,1072C 2058.2,1070.96 2050.87,1070.46 2043.5,1070.5C 2043.33,1095.5 2043.5,1120.5 2044,1145.5C 2045.94,1149.39 2049.11,1151.06 2053.5,1150.5C 2053.5,1151.5 2053.5,1152.5 2053.5,1153.5C 2043.49,1153.67 2033.49,1153.5 2023.5,1153C 2023.04,1152.59 2022.71,1152.09 2022.5,1151.5C 2027.49,1151.33 2030.99,1149 2033,1144.5C 2033.67,1121.17 2033.67,1097.83 2033,1074.5C 2032.65,1072.15 2031.49,1070.32 2029.5,1069C 2026.6,1068.56 2024.27,1067.4 2022.5,1065.5 Z"/></g>
<g><path style="opacity:0.912" fill="#0f4c7d" d="M 2113.5,1065.5 C 2124.85,1065.17 2136.19,1065.5 2147.5,1066.5C 2143.09,1067.46 2139.26,1069.46 2136,1072.5C 2135.33,1096.83 2135.33,1121.17 2136,1145.5C 2138.75,1149.45 2142.58,1151.12 2147.5,1150.5C 2147.5,1151.5 2147.5,1152.5 2147.5,1153.5C 2136.17,1153.5 2124.83,1153.5 2113.5,1153.5C 2113.5,1152.5 2113.5,1151.5 2113.5,1150.5C 2118.81,1151.26 2122.65,1149.26 2125,1144.5C 2125.67,1121.17 2125.67,1097.83 2125,1074.5C 2124.73,1072.67 2123.89,1071.17 2122.5,1070C 2119.07,1068.94 2116.07,1067.44 2113.5,1065.5 Z"/></g>
<g><path style="opacity:0.919" fill="#0f4b7d" d="M 2269.5,1065.5 C 2284.17,1065.33 2298.84,1065.5 2313.5,1066C 2330.31,1068.8 2337.48,1078.63 2335,1095.5C 2331.85,1105.17 2325.35,1111.33 2315.5,1114C 2322.26,1121.04 2328.43,1128.54 2334,1136.5C 2337.83,1140.33 2341.67,1144.17 2345.5,1148C 2348.31,1149.55 2351.31,1150.38 2354.5,1150.5C 2354.5,1151.5 2354.5,1152.5 2354.5,1153.5C 2340.48,1154.57 2329.32,1149.57 2321,1138.5C 2315.6,1129.77 2309.44,1121.6 2302.5,1114C 2299.42,1112.59 2296.42,1111.09 2293.5,1109.5C 2298.8,1108.67 2304.14,1108.17 2309.5,1108C 2319.43,1105.9 2324.43,1099.73 2324.5,1089.5C 2324.19,1080.68 2319.85,1074.85 2311.5,1072C 2304.21,1070.88 2296.87,1070.38 2289.5,1070.5C 2289.33,1095.5 2289.5,1120.5 2290,1145.5C 2291.94,1149.39 2295.11,1151.06 2299.5,1150.5C 2299.5,1151.5 2299.5,1152.5 2299.5,1153.5C 2289.5,1153.5 2279.5,1153.5 2269.5,1153.5C 2269.5,1152.5 2269.5,1151.5 2269.5,1150.5C 2273.89,1151.06 2277.06,1149.39 2279,1145.5C 2279.67,1121.5 2279.67,1097.5 2279,1073.5C 2278.42,1072 2277.58,1070.67 2276.5,1069.5C 2273.57,1068.89 2271.23,1067.55 2269.5,1065.5 Z"/></g>
</svg>
